<svg width="27" height="31" viewBox="0 0 27 31" fill="none" xmlns="http://www.w3.org/2000/svg">
<path d="M26.6028 6.67005C26.3618 6.1709 26.0169 5.75494 25.6014 5.46273C25.186 5.17053 24.7144 5.01206 24.2325 5.00278H6.38578L5.5771 1.23476C5.49539 0.871021 5.31311 0.551083 5.05993 0.327048C4.80675 0.103014 4.4976 -0.0119156 4.18282 0.000977819H1.39427C1.02449 0.000977819 0.669851 0.176636 0.408374 0.489309C0.146896 0.801982 0 1.22606 0 1.66825C0 2.11043 0.146896 2.53451 0.408374 2.84718C0.669851 3.15985 1.02449 3.33551 1.39427 3.33551H3.12317L6.97137 20.4417C7.05308 20.8054 7.23536 21.1253 7.48854 21.3494C7.74172 21.5734 8.05087 21.6883 8.36565 21.6755H20.9141C21.1716 21.6745 21.4238 21.5883 21.6429 21.4265C21.8619 21.2646 22.0392 21.0334 22.155 20.7585L26.7282 9.82118C26.9265 9.32436 27.0187 8.77659 26.9968 8.22675C26.9749 7.6769 26.8396 7.1421 26.6028 6.67005ZM20.0497 18.3409H9.4253L7.15263 8.33731H24.2325L20.0497 18.3409Z" fill="#FFD500"/>
<path d="M7.66858 30.0108C8.82364 30.0108 9.76001 28.8913 9.76001 27.5103C9.76001 26.1293 8.82364 25.0098 7.66858 25.0098C6.51351 25.0098 5.57715 26.1293 5.57715 27.5103C5.57715 28.8913 6.51351 30.0108 7.66858 30.0108Z" fill="#FFD500"/>
<path d="M21.6111 30.0108C22.7662 30.0108 23.7025 28.8913 23.7025 27.5103C23.7025 26.1293 22.7662 25.0098 21.6111 25.0098C20.4561 25.0098 19.5198 26.1293 19.5198 27.5103C19.5198 28.8913 20.4561 30.0108 21.6111 30.0108Z" fill="#FFD500"/>
</svg>
