<svg width="42" height="43" viewBox="0 0 42 43" fill="none" xmlns="http://www.w3.org/2000/svg">
<path d="M36.0633 13.0217C35.7677 12.4973 35.3444 12.0603 34.8347 11.7534C34.325 11.4464 33.7463 11.2799 33.155 11.2702H11.257L10.2647 7.31169C10.1645 6.92957 9.94079 6.59346 9.63014 6.3581C9.31949 6.12275 8.94016 6.00201 8.55392 6.01555H5.13235C4.67863 6.01555 4.24348 6.20009 3.92265 6.52857C3.60181 6.85704 3.42157 7.30255 3.42157 7.76709C3.42157 8.23163 3.60181 8.67714 3.92265 9.00561C4.24348 9.33409 4.67863 9.51863 5.13235 9.51863H7.25373L11.9755 27.4894C12.0757 27.8715 12.2994 28.2076 12.6101 28.443C12.9207 28.6783 13.3 28.7991 13.6863 28.7855H29.0833C29.3993 28.7845 29.7088 28.694 29.9775 28.524C30.2463 28.3539 30.4638 28.111 30.6059 27.8222L36.2173 16.3321C36.4605 15.8102 36.5738 15.2347 36.5469 14.6571C36.52 14.0794 36.3539 13.5176 36.0633 13.0217ZM28.0227 25.2825H14.9865L12.1979 14.7732H33.155L28.0227 25.2825Z" fill="#0D6B1C"/>
<path d="M12.8309 37.5431C14.2481 37.5431 15.3971 36.3668 15.3971 34.9158C15.3971 33.4647 14.2481 32.2885 12.8309 32.2885C11.4136 32.2885 10.2647 33.4647 10.2647 34.9158C10.2647 36.3668 11.4136 37.5431 12.8309 37.5431Z" fill="#0D6B1C"/>
<path d="M29.9387 37.5431C31.356 37.5431 32.5049 36.3668 32.5049 34.9158C32.5049 33.4647 31.356 32.2885 29.9387 32.2885C28.5215 32.2885 27.3726 33.4647 27.3726 34.9158C27.3726 36.3668 28.5215 37.5431 29.9387 37.5431Z" fill="#0D6B1C"/>
</svg>
