<svg width="34" height="34" viewBox="0 0 34 34" fill="none" xmlns="http://www.w3.org/2000/svg">
<path d="M17 2.125C8.78555 2.125 2.125 8.78555 2.125 17C2.125 25.2145 8.78555 31.875 17 31.875C25.2145 31.875 31.875 25.2145 31.875 17C31.875 8.78555 25.2145 2.125 17 2.125ZM17 29.3516C10.1801 29.3516 4.64844 23.8199 4.64844 17C4.64844 10.1801 10.1801 4.64844 17 4.64844C23.8199 4.64844 29.3516 10.1801 29.3516 17C29.3516 23.8199 23.8199 29.3516 17 29.3516Z" fill="black"/>
<path d="M22.8006 21.2035L18.0658 17.7803V9.5625C18.0658 9.41641 17.9463 9.29688 17.8002 9.29688H16.2031C16.057 9.29688 15.9375 9.41641 15.9375 9.5625V18.7066C15.9375 18.793 15.9773 18.8727 16.0471 18.9225L21.5389 22.9268C21.6584 23.0131 21.8244 22.9865 21.9107 22.8703L22.8604 21.5754C22.9467 21.4525 22.9201 21.2865 22.8006 21.2035Z" fill="black"/>
</svg>
