<svg width="38" height="38" viewBox="0 0 38 38" fill="none" xmlns="http://www.w3.org/2000/svg">
<path d="M19 7.09332C17.8037 7.09332 16.6344 7.44804 15.6397 8.11264C14.6451 8.77724 13.8698 9.72186 13.4121 10.8271C12.9543 11.9322 12.8345 13.1484 13.0679 14.3216C13.3013 15.4949 13.8773 16.5726 14.7232 17.4185C15.5691 18.2643 16.6468 18.8404 17.82 19.0738C18.9933 19.3071 20.2094 19.1874 21.3146 18.7296C22.4198 18.2718 23.3644 17.4966 24.029 16.5019C24.6936 15.5073 25.0483 14.3379 25.0483 13.1416C25.0483 11.5375 24.4111 9.99911 23.2768 8.86483C22.1425 7.73055 20.6041 7.09332 19 7.09332ZM19 17.0789C18.2213 17.0789 17.4601 16.848 16.8126 16.4153C16.1651 15.9827 15.6605 15.3678 15.3625 14.6484C15.0645 13.9289 14.9865 13.1373 15.1384 12.3735C15.2903 11.6098 15.6653 10.9082 16.216 10.3576C16.7666 9.80698 17.4681 9.432 18.2319 9.28008C18.9956 9.12816 19.7873 9.20613 20.5067 9.50413C21.2261 9.80213 21.841 10.3068 22.2737 10.9542C22.7063 11.6017 22.9372 12.3629 22.9372 13.1416C22.9344 14.184 22.5184 15.1828 21.7803 15.9189C21.0422 16.655 20.0424 17.0683 19 17.0683V17.0789Z" fill="black"/>
<path d="M19 2.11111C15.7122 2.11386 12.559 3.41756 10.2292 5.73747C7.89938 8.05738 6.58228 11.205 6.56555 14.4928C6.56555 19.4222 9.33111 23.5494 11.3578 26.5578L11.7272 27.1067C13.7436 30.0291 15.9068 32.8475 18.2083 35.5511L19.0106 36.4906L19.8128 35.5511C22.114 32.8473 24.2772 30.0289 26.2939 27.1067L26.6633 26.5472C28.6794 23.5389 31.445 19.4222 31.445 14.4928C31.4283 11.2031 30.1097 8.05396 27.7776 5.73375C25.4455 3.41354 22.2897 2.11107 19 2.11111ZM24.9006 25.3333L24.5206 25.8928C22.705 28.6161 20.2983 31.6667 19 33.1761C17.7544 31.6667 15.295 28.6161 13.4794 25.8928L13.11 25.3333C11.2417 22.5467 8.67666 18.7361 8.67666 14.4506C8.67666 13.0949 8.94368 11.7525 9.46248 10.5C9.98128 9.2475 10.7417 8.10947 11.7003 7.15086C12.6589 6.19225 13.7969 5.43183 15.0494 4.91304C16.3019 4.39424 17.6443 4.12722 19 4.12722C20.3557 4.12722 21.6981 4.39424 22.9506 4.91304C24.2031 5.43183 25.3411 6.19225 26.2997 7.15086C27.2583 8.10947 28.0187 9.2475 28.5375 10.5C29.0563 11.7525 29.3233 13.0949 29.3233 14.4506C29.3233 18.7783 26.7689 22.5889 24.9006 25.3333Z" fill="black"/>
</svg>
