<svg width="52" height="52" viewBox="0 0 52 52" fill="none" xmlns="http://www.w3.org/2000/svg">
<path d="M51.5667 0H0.433333C0.19401 0 0 0.19401 0 0.433333V51.5667C0 51.806 0.19401 52 0.433333 52H51.5667C51.806 52 52 51.806 52 51.5667V0.433333C52 0.19401 51.806 0 51.5667 0Z" fill="white"/>
<path d="M37.6522 36.1221C37.4728 35.1351 37.284 34.2376 37.1119 33.6848C36.6813 32.3032 33.7251 31.1269 29.6884 30.6709" fill="black"/>
<path d="M22.2768 30.6704C18.2484 31.1254 15.3182 32.3027 14.8876 33.6854C14.7155 34.2381 14.5272 35.1357 14.3473 36.1226" fill="black"/>
<path d="M27.3322 35.62C27.7243 34.5041 28.1882 32.9202 28.4185 31.9634L27.3322 35.62Z" fill="black"/>
<path d="M23.5758 31.9302C23.8129 32.9109 24.258 34.5078 24.6678 35.6523L23.5758 31.9302Z" fill="black"/>
<path d="M28.2329 29.9095C28.1518 29.4872 28.1195 28.8663 28.2906 28.0317L28.2329 29.9095Z" fill="black"/>
<path d="M23.6928 27.9521C23.882 28.8216 23.8514 29.4664 23.7687 29.9016L23.6928 27.9521Z" fill="black"/>
<path d="M29.7596 30.7552L28.5932 29.7417L25.9984 30.9959C25.9984 30.9959 28.2173 32.1228 28.2282 32.1119L29.7596 30.7552Z" fill="black"/>
<path d="M22.2404 30.7552L23.4068 29.7417L25.9984 30.9959C25.9984 30.9959 23.7827 32.1228 23.7713 32.1119L22.2404 30.7552Z" fill="black"/>
<path d="M24.973 31.5132L25.9979 33.1824L27.0228 31.5132" fill="black"/>
<path d="M27.6266 40.9983C27.5636 39.4159 27.365 36.2767 27.235 34.8394C27.1393 33.777 26.6609 32.9424 26.4009 32.5576" fill="black"/>
<path d="M25.6064 32.5518C25.3469 32.9329 24.8638 33.7712 24.7676 34.8398C24.6381 36.277 24.439 39.4168 24.3766 40.9986" fill="black"/>
<path d="M20.9066 24.208C21.0127 24.495 21.1292 24.766 21.2545 25.0213C22.5846 27.7331 24.8862 28.6816 26.0005 28.6816C27.1149 28.6816 29.4164 27.7331 30.746 25.0213C30.8708 24.7665 30.9873 24.4956 31.0934 24.209" fill="black"/>
<path d="M23.1265 16.6016C23.1265 16.6016 23.6018 19.2001 25.4535 19.5521C25.4535 19.5521 24.8357 17.7025 24.8836 16.9984C24.8836 16.9984 26.8778 17.9229 27.4955 19.7726C27.4955 19.7726 27.7332 18.7601 27.4004 17.2183C27.4004 17.2183 28.3977 17.7467 28.3026 19.5084C28.3026 19.5084 29.0623 19.1995 29.1096 18.1871C29.1096 18.1871 29.7268 19.1553 29.4419 20.1688C29.4419 20.1688 29.5844 20.3888 29.8693 19.9041C29.8693 19.9041 31.0201 20.472 30.9551 22.3258C30.9551 22.3258 32.1584 20.798 31.7866 19.2432C31.7866 19.2432 32.1272 20.0799 32.0798 20.6524C32.0798 20.6524 32.3861 19.3753 32.0538 17.8782C32.0538 17.8782 32.4813 18.2303 32.6238 18.7149C32.6238 18.7149 33.1464 17.7014 31.8167 16.8205C31.8167 16.8205 32.4813 16.6885 32.5764 16.9973C32.5764 16.9973 32.2442 15.3677 31.2468 14.9272C31.2468 14.9272 31.6742 14.7956 32.2442 15.3682C32.2442 15.3682 32.0065 14.1352 30.5822 13.7385C30.5822 13.7385 30.8667 13.6064 31.3414 13.8264C31.3414 13.8264 30.9618 13.0339 29.7742 12.7692C29.7742 12.7692 29.679 12.3735 30.2016 12.4172C30.2016 12.4172 29.1569 11.9325 28.1596 11.8888C28.1596 11.8888 28.4918 11.1842 29.0618 11.1842C29.0618 11.1842 27.6848 10.7875 26.7348 11.3163C26.7348 11.3163 26.2127 11.0958 26.5444 10.9201C26.5444 10.9201 23.9803 10.8322 23.8378 12.1972C23.8378 12.1972 23.1254 12.153 22.5082 11.8446C22.5082 11.8446 21.891 12.2856 22.4609 12.8134C22.4609 12.8134 20.9888 12.8571 20.3237 13.9142C20.3237 13.9142 20.6565 13.7822 21.0834 13.8264C21.0834 13.8264 19.9441 14.3989 19.8016 15.3677C19.8016 15.3677 20.1339 15.2361 20.514 15.2798C20.514 15.2798 19.8494 15.676 19.5645 16.469C19.5645 16.469 19.8494 16.3811 20.2769 16.3369C20.2769 16.3369 18.8048 17.4815 18.8048 19.1111C18.8048 19.1111 19.3747 18.2302 19.707 18.2302C19.707 18.2302 19.4002 19.0534 19.7803 20.6384C19.7803 20.6384 20.1344 20.4761 20.3715 20.5203C20.3715 20.5203 20.3242 21.7533 21.0839 22.5899C21.0839 22.5899 21.0839 19.7273 21.606 19.6826C21.606 19.6826 21.891 20.0794 22.2238 20.3435C22.2243 20.3451 21.6065 16.8668 23.1265 16.6016Z" fill="black"/>
<path d="M20.9362 24.2904C20.3861 24.3845 19.7454 23.9805 19.435 22.1652C19.1251 20.3499 19.7985 20.432 20.3486 20.3379L20.9362 24.2904Z" fill="black"/>
<path d="M31.07 24.2904C31.6207 24.3845 32.2546 23.9482 32.565 22.1329C32.8754 20.3176 32.2078 20.4325 31.6581 20.3384L31.07 24.2904Z" fill="black"/>
</svg>
