<svg width="23" height="23" viewBox="0 0 23 23" fill="none" xmlns="http://www.w3.org/2000/svg">
<path d="M10.1145 6.5876L6.99123 3.07398C6.63117 2.66908 5.97107 2.67088 5.55285 3.07938L2.98445 5.58705C2.22003 6.33297 2.00122 7.44059 2.44344 8.32867C5.08535 13.6598 9.49689 17.9653 14.9632 20.5476C15.8735 20.9786 17.0091 20.7654 17.7735 20.0194L20.3659 17.4884C20.786 17.079 20.7869 16.432 20.3678 16.0811L16.7488 13.0534C16.3702 12.7367 15.7821 12.7781 15.4027 13.1488L14.1434 14.3779C14.079 14.4437 13.9941 14.4871 13.9019 14.5014C13.8096 14.5157 13.7151 14.5001 13.6329 14.457C11.5745 13.3018 9.86706 11.6355 8.68442 9.62794C8.64013 9.54764 8.62409 9.45539 8.63877 9.36535C8.65344 9.27531 8.69802 9.19244 8.76566 9.12947L10.0212 7.90487C10.4016 7.53237 10.4432 6.95651 10.1145 6.5867V6.5876Z" stroke="#373737" stroke-width="2" stroke-linecap="round" stroke-linejoin="round"/>
</svg>
