<svg width="45" height="42" viewBox="0 0 45 42" fill="none" xmlns="http://www.w3.org/2000/svg">
<path d="M0.709473 20.9385C0.709473 9.37448 10.0839 0 21.6479 0H23.3519C34.9159 0 44.2904 9.37448 44.2904 20.9385C44.2904 32.5025 34.9159 41.877 23.3519 41.877H21.6479C10.0839 41.877 0.709473 32.5025 0.709473 20.9385Z" fill="#E32D46"/>
<path d="M28.977 8.81671C30.6956 8.82165 32.3423 9.47984 33.5575 10.6475C34.7727 11.8152 35.4576 13.3976 35.4628 15.049V27.5121C35.4576 29.1635 34.7727 30.7458 33.5575 31.9135C32.3423 33.0812 30.6956 33.7394 28.977 33.7443H16.007C14.2884 33.7394 12.6417 33.0812 11.4265 31.9135C10.2113 30.7458 9.52637 29.1635 9.52124 27.5121V15.049C9.52637 13.3976 10.2113 11.8152 11.4265 10.6475C12.6417 9.47984 14.2884 8.82165 16.007 8.81671H28.977ZM28.977 6.32422H16.007C11.0131 6.32422 6.92737 10.2502 6.92737 15.049V27.5121C6.92737 32.3108 11.0131 36.2368 16.007 36.2368H28.977C33.9709 36.2368 38.0566 32.3108 38.0566 27.5121V15.049C38.0566 10.2502 33.9709 6.32422 28.977 6.32422Z" fill="white"/>
<path d="M30.9226 15.0486C30.5378 15.0486 30.1616 14.9389 29.8417 14.7335C29.5217 14.5281 29.2723 14.2362 29.1251 13.8946C28.9778 13.5531 28.9393 13.1772 29.0144 12.8146C29.0894 12.452 29.2747 12.119 29.5468 11.8576C29.8189 11.5961 30.1656 11.4181 30.543 11.346C30.9204 11.2739 31.3116 11.3109 31.6671 11.4523C32.0226 11.5938 32.3265 11.8334 32.5403 12.1408C32.754 12.4482 32.8681 12.8096 32.8681 13.1793C32.8687 13.4249 32.8188 13.6682 32.7212 13.8953C32.6236 14.1223 32.4803 14.3286 32.2995 14.5022C32.1188 14.6759 31.9041 14.8136 31.6678 14.9073C31.4315 15.0011 31.1782 15.0491 30.9226 15.0486Z" fill="white"/>
<path d="M22.492 16.2947C23.5182 16.2947 24.5213 16.5871 25.3746 17.135C26.2278 17.6828 26.8928 18.4615 27.2855 19.3725C27.6782 20.2835 27.781 21.2859 27.5808 22.2531C27.3806 23.2202 26.8864 24.1085 26.1608 24.8058C25.4352 25.5031 24.5107 25.9779 23.5042 26.1703C22.4978 26.3626 21.4546 26.2639 20.5065 25.8865C19.5584 25.5092 18.7481 24.8702 18.178 24.0503C17.6079 23.2304 17.3036 22.2665 17.3036 21.2804C17.3051 19.9586 17.8522 18.6913 18.8249 17.7566C19.7976 16.8219 21.1164 16.2962 22.492 16.2947ZM22.492 13.8022C20.9528 13.8022 19.4482 14.2408 18.1684 15.0625C16.8886 15.8843 15.8911 17.0522 15.3021 18.4186C14.7131 19.7851 14.559 21.2887 14.8593 22.7393C15.1595 24.1899 15.9007 25.5224 16.9891 26.5683C18.0775 27.6141 19.4642 28.3263 20.9738 28.6149C22.4834 28.9034 24.0482 28.7553 25.4702 28.1893C26.8922 27.6233 28.1077 26.6648 28.9628 25.435C29.8179 24.2053 30.2743 22.7594 30.2743 21.2804C30.2743 19.2971 29.4544 17.395 27.995 15.9925C26.5355 14.5901 24.556 13.8022 22.492 13.8022Z" fill="white"/>
</svg>
