<svg width="40" height="38" viewBox="0 0 40 38" fill="none" xmlns="http://www.w3.org/2000/svg">
<path d="M20 7.09326C18.7408 7.09326 17.5099 7.44799 16.4629 8.11259C15.4159 8.77719 14.5998 9.72181 14.118 10.827C13.6361 11.9322 13.51 13.1483 13.7557 14.3216C14.0013 15.4948 14.6077 16.5725 15.4981 17.4184C16.3885 18.2643 17.5229 18.8403 18.7579 19.0737C19.9929 19.3071 21.2731 19.1873 22.4364 18.7295C23.5998 18.2717 24.5941 17.4965 25.2937 16.5019C25.9933 15.5072 26.3667 14.3378 26.3667 13.1416C26.3667 11.5375 25.6959 9.99906 24.5019 8.86478C23.3079 7.7305 21.6885 7.09326 20 7.09326ZM20 17.0788C19.1803 17.0788 18.379 16.8479 17.6975 16.4153C17.0159 15.9826 16.4847 15.3677 16.171 14.6483C15.8573 13.9289 15.7753 13.1372 15.9352 12.3735C16.0951 11.6097 16.4898 10.9082 17.0694 10.3576C17.649 9.80693 18.3875 9.43194 19.1915 9.28003C19.9954 9.12811 20.8287 9.20608 21.586 9.50408C22.3433 9.80207 22.9906 10.3067 23.446 10.9542C23.9014 11.6017 24.1444 12.3629 24.1444 13.1416C24.1415 14.184 23.7036 15.1827 22.9266 15.9188C22.1497 16.6549 21.0973 17.0683 20 17.0683V17.0788Z" fill="#FC8686"/>
<path d="M20 2.11133C16.5391 2.11407 13.22 3.41777 10.7676 5.73768C8.31514 8.05759 6.92871 11.2052 6.9111 14.493C6.9111 19.4224 9.82221 23.5497 11.9555 26.558L12.3444 27.1069C14.467 30.0293 16.744 32.8477 19.1667 35.5513L20.0111 36.4908L20.8555 35.5513C23.2779 32.8475 25.5549 30.0291 27.6778 27.1069L28.0667 26.5474C30.1889 23.5391 33.1 19.4224 33.1 14.493C33.0824 11.2034 31.6944 8.05417 29.2396 5.73396C26.7848 3.41375 23.4628 2.11129 20 2.11133ZM26.2111 25.3336L25.8111 25.893C23.9 28.6163 21.3667 31.6669 20 33.1763C18.6889 31.6669 16.1 28.6163 14.1889 25.893L13.8 25.3336C11.8333 22.5469 9.13332 18.7363 9.13332 14.4508C9.13332 13.0951 9.4144 11.7527 9.9605 10.5002C10.5066 9.24772 11.307 8.10968 12.3161 7.15107C13.3252 6.19246 14.5231 5.43205 15.8415 4.91326C17.1599 4.39446 18.573 4.12744 20 4.12744C21.427 4.12744 22.8401 4.39446 24.1585 4.91326C25.4769 5.43205 26.6748 6.19246 27.6839 7.15107C28.6929 8.10968 29.4934 9.24772 30.0395 10.5002C30.5856 11.7527 30.8667 13.0951 30.8667 14.4508C30.8667 18.7786 28.1778 22.5891 26.2111 25.3336Z" fill="#FC8686"/>
</svg>
