<svg width="44" height="42" viewBox="0 0 44 42" fill="none" xmlns="http://www.w3.org/2000/svg">
<path d="M0 20.9385C0 9.37448 9.37448 0 20.9385 0H22.6425C34.2065 0 43.5809 9.37448 43.5809 20.9385C43.5809 32.5025 34.2065 41.877 22.6425 41.877H20.9385C9.37448 41.877 0 32.5025 0 20.9385Z" fill="#2787F5"/>
<path fill-rule="evenodd" clip-rule="evenodd" d="M35.4353 14.8259C35.6331 14.2006 35.4353 13.7402 34.4879 13.7402H31.3598C30.5637 13.7402 30.1967 14.1376 29.9977 14.5762C29.9977 14.5762 28.4068 18.2362 26.1533 20.6135C25.424 21.3029 25.0927 21.5216 24.6947 21.5216C24.4957 21.5216 24.1966 21.3029 24.1966 20.6765V14.8259C24.1966 14.0746 23.9773 13.7402 23.3147 13.7402H18.3955C17.8986 13.7402 17.5995 14.0884 17.5995 14.4193C17.5995 15.1305 18.7268 15.2954 18.8424 17.2971V21.6465C18.8424 22.6004 18.6601 22.7733 18.262 22.7733C17.2014 22.7733 14.6215 19.0962 13.0902 14.8888C12.7934 14.07 12.4931 13.7402 11.6935 13.7402H8.56299C7.66923 13.7402 7.49048 14.1376 7.49048 14.5762C7.49048 15.3572 8.55107 19.237 12.43 24.3685C15.0159 27.8727 18.6565 29.7726 21.9729 29.7726C23.9618 29.7726 24.2073 29.3512 24.2073 28.624V25.9752C24.2073 25.1312 24.3956 24.9629 25.026 24.9629C25.4907 24.9629 26.2856 25.1827 28.1422 26.8719C30.2634 28.8748 30.6126 29.7726 31.8066 29.7726H34.9348C35.8285 29.7726 36.2766 29.3512 36.0192 28.5175C35.7356 27.6884 34.7227 26.4848 33.3796 25.0568C32.6503 24.2437 31.5564 23.3677 31.2239 22.9291C30.7603 22.3668 30.8926 22.116 31.2239 21.6155C31.2239 21.6155 35.0373 16.547 35.4341 14.8259H35.4353Z" fill="white"/>
</svg>
