<svg width="44" height="42" viewBox="0 0 44 42" fill="none" xmlns="http://www.w3.org/2000/svg">
<path d="M0.419067 20.9385C0.419067 9.37448 9.79354 0 21.3575 0H23.0615C34.6255 0 44 9.37448 44 20.9385C44 32.5025 34.6255 41.877 23.0615 41.877H21.3575C9.79354 41.877 0.419067 32.5025 0.419067 20.9385Z" fill="#01E675"/>
<path d="M32.6524 10.9556C29.9328 8.28741 26.1735 6.83887 22.334 6.83887C14.1753 6.83887 7.61619 13.1665 7.69598 20.8664C7.69594 23.3059 8.41579 25.6694 9.61565 27.8039L7.53579 35.0464L15.2946 33.1405C17.4543 34.2841 19.8538 34.8178 22.2536 34.8178C30.3324 34.8178 36.8915 28.4901 36.8916 20.7903C36.8917 17.0546 35.3719 13.5477 32.6525 10.9556H32.6524ZM22.3336 32.4545C20.1739 32.4545 18.0143 31.9209 16.1745 30.8536L15.6946 30.6248L11.0554 31.7683L12.2552 27.4229L11.9353 26.9654C8.41586 21.5527 10.0958 14.3863 15.8549 11.0318C21.6141 7.67746 29.053 9.27846 32.5724 14.7675C36.0917 20.2565 34.4118 27.3465 28.6528 30.701C26.8129 31.8445 24.5733 32.4544 22.3336 32.4544L22.3336 32.4545ZM29.3726 23.9923L28.4928 23.6111C28.4928 23.6111 27.2131 23.0774 26.4132 22.6962C26.3331 22.6962 26.2532 22.6199 26.1732 22.6199C25.9332 22.6199 25.7732 22.6962 25.6133 22.7725C25.6133 22.7725 25.5333 22.8487 24.4135 24.0685C24.3334 24.2209 24.1735 24.2972 24.0135 24.2972H23.9335C23.8535 24.2972 23.6936 24.2209 23.6135 24.1448L23.2136 23.9923C22.3337 23.6111 21.5339 23.1536 20.894 22.5438C20.734 22.3913 20.494 22.2388 20.334 22.0864C19.7741 21.5527 19.2142 20.9428 18.8144 20.2566L18.7343 20.1042C18.6544 20.0279 18.6544 19.9517 18.5744 19.7992C18.5744 19.6468 18.5744 19.4943 18.6544 19.418C18.6544 19.418 18.9744 19.0368 19.2142 18.8082C19.3743 18.6556 19.4543 18.427 19.6142 18.2745C19.7742 18.0458 19.8542 17.7409 19.7742 17.5121C19.6943 17.1309 18.7344 15.0725 18.4945 14.6151C18.3345 14.3864 18.1746 14.3102 17.9346 14.2339H17.0548C16.8947 14.2339 16.7348 14.3102 16.5748 14.3102L16.4947 14.3864C16.3348 14.4627 16.1748 14.6151 16.0148 14.6913C15.8549 14.8439 15.7748 14.9962 15.6149 15.1488C15.0549 15.8349 14.735 16.6735 14.735 17.5121C14.735 18.122 14.8949 18.7319 15.1349 19.2656L15.2149 19.4943C15.9348 20.9427 16.8946 22.2388 18.1745 23.3823L18.4944 23.6873C18.7343 23.916 18.9743 24.0685 19.1342 24.2971C20.814 25.6695 22.7336 26.6605 24.8933 27.1942C25.1333 27.2704 25.4532 27.2704 25.6932 27.3467H26.493C26.893 27.3467 27.3729 27.1942 27.6929 27.0417C27.9328 26.8893 28.0928 26.8893 28.2527 26.7368L28.4128 26.5842C28.5728 26.4318 28.7328 26.3556 28.8927 26.2031C29.0527 26.0507 29.2127 25.8982 29.2927 25.7456C29.4527 25.4407 29.5326 25.0595 29.6126 24.6784L29.6126 24.1448C29.6126 24.1448 29.5326 24.0685 29.3726 23.9923Z" fill="white"/>
</svg>
